<?xml version="1.0" encoding="UTF-8"?>
<mxfile host="app.diagrams.net" modified="2025-01-14T00:00:00.000Z" agent="5.0" etag="brain-architecture" version="21.1.2" type="device">
  <diagram name="Brain Infrastructure Architecture" id="brain-infra-arch">
    <mxGraphModel dx="1422" dy="794" grid="1" gridSize="10" guides="1" tooltips="1" connect="1" arrows="1" fold="1" page="1" pageScale="1" pageWidth="1169" pageHeight="827" math="0" shadow="0">
      <root>
        <mxCell id="0" />
        <mxCell id="1" parent="0" />
        
        <!-- Title -->
        <mxCell id="title" value="Brain Document AI - Infrastructure Architecture" style="text;html=1;strokeColor=none;fillColor=none;align=center;verticalAlign=middle;whiteSpace=wrap;rounded=0;fontSize=20;fontStyle=1" vertex="1" parent="1">
          <mxGeometry x="400" y="20" width="400" height="30" as="geometry" />
        </mxCell>
        
        <!-- External Users -->
        <mxCell id="users" value="Users" style="shape=actor;whiteSpace=wrap;html=1;fillColor=#dae8fc;strokeColor=#6c8ebf;" vertex="1" parent="1">
          <mxGeometry x="40" y="200" width="40" height="60" as="geometry" />
        </mxCell>
        
        <!-- Load Balancer / Nginx -->
        <mxCell id="nginx" value="Nginx&lt;br&gt;Reverse Proxy&lt;br&gt;(Production)" style="rounded=1;whiteSpace=wrap;html=1;fillColor=#f8cecc;strokeColor=#b85450;" vertex="1" parent="1">
          <mxGeometry x="160" y="190" width="120" height="80" as="geometry" />
        </mxCell>
        
        <!-- Frontend Container -->
        <mxCell id="frontend" value="Frontend&lt;br&gt;React App&lt;br&gt;Port: 3001" style="rounded=1;whiteSpace=wrap;html=1;fillColor=#d5e8d4;strokeColor=#82b366;dashed=1;dashPattern=5 5;" vertex="1" parent="1">
          <mxGeometry x="340" y="100" width="120" height="80" as="geometry" />
        </mxCell>
        
        <!-- Backend Container -->
        <mxCell id="backend" value="Backend&lt;br&gt;FastAPI&lt;br&gt;Port: 8001" style="rounded=1;whiteSpace=wrap;html=1;fillColor=#fff2cc;strokeColor=#d6b656;" vertex="1" parent="1">
          <mxGeometry x="340" y="220" width="120" height="80" as="geometry" />
        </mxCell>
        
        <!-- PostgreSQL Container -->
        <mxCell id="postgres" value="PostgreSQL&lt;br&gt;+ pgvector&lt;br&gt;Port: 5433" style="shape=cylinder3;whiteSpace=wrap;html=1;boundedLbl=1;backgroundOutline=1;size=15;fillColor=#e1d5e7;strokeColor=#9673a6;" vertex="1" parent="1">
          <mxGeometry x="540" y="300" width="100" height="80" as="geometry" />
        </mxCell>
        
        <!-- Redis Container -->
        <mxCell id="redis" value="Redis&lt;br&gt;Cache&lt;br&gt;Port: 6379" style="shape=cylinder3;whiteSpace=wrap;html=1;boundedLbl=1;backgroundOutline=1;size=15;fillColor=#e1d5e7;strokeColor=#9673a6;" vertex="1" parent="1">
          <mxGeometry x="540" y="180" width="100" height="80" as="geometry" />
        </mxCell>
        
        <!-- MinIO Container -->
        <mxCell id="minio" value="MinIO&lt;br&gt;(Local S3)&lt;br&gt;Port: 9000" style="shape=cylinder3;whiteSpace=wrap;html=1;boundedLbl=1;backgroundOutline=1;size=15;fillColor=#dae8fc;strokeColor=#6c8ebf;" vertex="1" parent="1">
          <mxGeometry x="540" y="420" width="100" height="80" as="geometry" />
        </mxCell>
        
        <!-- AWS Services -->
        <mxCell id="aws-group" value="AWS Services" style="swimlane;rounded=1;fillColor=#f5f5f5;strokeColor=#666666;" vertex="1" parent="1">
          <mxGeometry x="720" y="160" width="380" height="280" as="geometry" />
        </mxCell>
        
        <mxCell id="bedrock" value="Amazon Bedrock&lt;br&gt;- Claude (LLM)&lt;br&gt;- Titan (Embeddings)" style="rounded=1;whiteSpace=wrap;html=1;fillColor=#FF9900;strokeColor=#FF6600;fontColor=#FFFFFF;" vertex="1" parent="aws-group">
          <mxGeometry x="20" y="40" width="150" height="80" as="geometry" />
        </mxCell>
        
        <mxCell id="s3" value="Amazon S3&lt;br&gt;(Production)&lt;br&gt;brain-documents" style="rounded=1;whiteSpace=wrap;html=1;fillColor=#FF9900;strokeColor=#FF6600;fontColor=#FFFFFF;" vertex="1" parent="aws-group">
          <mxGeometry x="200" y="40" width="150" height="80" as="geometry" />
        </mxCell>
        
        <mxCell id="ec2" value="EC2 Instance&lt;br&gt;t2.large&lt;br&gt;(Production Host)" style="rounded=1;whiteSpace=wrap;html=1;fillColor=#FF9900;strokeColor=#FF6600;fontColor=#FFFFFF;" vertex="1" parent="aws-group">
          <mxGeometry x="110" y="150" width="150" height="80" as="geometry" />
        </mxCell>
        
        <!-- Docker Network -->
        <mxCell id="docker-network" value="Docker Network: brain-network" style="swimlane;rounded=1;dashed=1;dashPattern=5 5;fillColor=#f0f0f0;strokeColor=#999999;" vertex="1" parent="1">
          <mxGeometry x="320" y="70" width="360" height="470" as="geometry" />
        </mxCell>
        
        <!-- Development Tools -->
        <mxCell id="pgadmin" value="pgAdmin&lt;br&gt;Port: 5050&lt;br&gt;(Dev Only)" style="rounded=1;whiteSpace=wrap;html=1;fillColor=#d5e8d4;strokeColor=#82b366;dashed=1;dashPattern=5 5;" vertex="1" parent="1">
          <mxGeometry x="160" y="360" width="100" height="60" as="geometry" />
        </mxCell>
        
        <!-- Connections -->
        <mxCell id="edge1" style="edgeStyle=orthogonalEdgeStyle;rounded=0;orthogonalLoop=1;jettySize=auto;html=1;entryX=0;entryY=0.5;entryDx=0;entryDy=0;" edge="1" parent="1" source="users" target="nginx">
          <mxGeometry relative="1" as="geometry" />
        </mxCell>
        
        <mxCell id="edge2" style="edgeStyle=orthogonalEdgeStyle;rounded=0;orthogonalLoop=1;jettySize=auto;html=1;entryX=0;entryY=0.5;entryDx=0;entryDy=0;" edge="1" parent="1" source="nginx" target="backend">
          <mxGeometry relative="1" as="geometry" />
        </mxCell>
        
        <mxCell id="edge3" style="edgeStyle=orthogonalEdgeStyle;rounded=0;orthogonalLoop=1;jettySize=auto;html=1;entryX=0;entryY=0.5;entryDx=0;entryDy=0;" edge="1" parent="1" source="nginx" target="frontend">
          <mxGeometry relative="1" as="geometry" />
        </mxCell>
        
        <mxCell id="edge4" style="edgeStyle=orthogonalEdgeStyle;rounded=0;orthogonalLoop=1;jettySize=auto;html=1;entryX=0;entryY=0.5;entryDx=0;entryDy=0;entryPerimeter=0;" edge="1" parent="1" source="backend" target="postgres">
          <mxGeometry relative="1" as="geometry" />
        </mxCell>
        
        <mxCell id="edge5" style="edgeStyle=orthogonalEdgeStyle;rounded=0;orthogonalLoop=1;jettySize=auto;html=1;entryX=0;entryY=0.5;entryDx=0;entryDy=0;entryPerimeter=0;" edge="1" parent="1" source="backend" target="redis">
          <mxGeometry relative="1" as="geometry" />
        </mxCell>
        
        <mxCell id="edge6" style="edgeStyle=orthogonalEdgeStyle;rounded=0;orthogonalLoop=1;jettySize=auto;html=1;entryX=0;entryY=0.5;entryDx=0;entryDy=0;entryPerimeter=0;" edge="1" parent="1" source="backend" target="minio">
          <mxGeometry relative="1" as="geometry" />
        </mxCell>
        
        <mxCell id="edge7" style="edgeStyle=orthogonalEdgeStyle;rounded=0;orthogonalLoop=1;jettySize=auto;html=1;exitX=1;exitY=0.5;exitDx=0;exitDy=0;entryX=0;entryY=0.5;entryDx=0;entryDy=0;strokeColor=#FF6600;strokeWidth=2;dashed=1;" edge="1" parent="1" source="backend" target="bedrock">
          <mxGeometry relative="1" as="geometry" />
        </mxCell>
        
        <mxCell id="edge8" style="edgeStyle=orthogonalEdgeStyle;rounded=0;orthogonalLoop=1;jettySize=auto;html=1;exitX=1;exitY=0.75;exitDx=0;exitDy=0;entryX=0;entryY=0.5;entryDx=0;entryDy=0;strokeColor=#FF6600;strokeWidth=2;dashed=1;" edge="1" parent="1" source="backend" target="s3">
          <mxGeometry relative="1" as="geometry" />
        </mxCell>
        
        <mxCell id="edge9" style="edgeStyle=orthogonalEdgeStyle;rounded=0;orthogonalLoop=1;jettySize=auto;html=1;entryX=0;entryY=0.5;entryDx=0;entryDy=0;entryPerimeter=0;" edge="1" parent="1" source="pgadmin" target="postgres">
          <mxGeometry relative="1" as="geometry" />
        </mxCell>
        
        <!-- Legend -->
        <mxCell id="legend" value="Legend" style="swimlane;rounded=1;fillColor=#ffffff;strokeColor=#000000;" vertex="1" parent="1">
          <mxGeometry x="40" y="460" width="200" height="140" as="geometry" />
        </mxCell>
        
        <mxCell id="legend1" value="Production Service" style="rounded=1;whiteSpace=wrap;html=1;fillColor=#f8cecc;strokeColor=#b85450;" vertex="1" parent="legend">
          <mxGeometry x="10" y="30" width="80" height="30" as="geometry" />
        </mxCell>
        
        <mxCell id="legend2" value="Dev Only" style="rounded=1;whiteSpace=wrap;html=1;fillColor=#d5e8d4;strokeColor=#82b366;dashed=1;dashPattern=5 5;" vertex="1" parent="legend">
          <mxGeometry x="100" y="30" width="80" height="30" as="geometry" />
        </mxCell>
        
        <mxCell id="legend3" value="Core Service" style="rounded=1;whiteSpace=wrap;html=1;fillColor=#fff2cc;strokeColor=#d6b656;" vertex="1" parent="legend">
          <mxGeometry x="10" y="70" width="80" height="30" as="geometry" />
        </mxCell>
        
        <mxCell id="legend4" value="AWS Service" style="rounded=1;whiteSpace=wrap;html=1;fillColor=#FF9900;strokeColor=#FF6600;fontColor=#FFFFFF;" vertex="1" parent="legend">
          <mxGeometry x="100" y="70" width="80" height="30" as="geometry" />
        </mxCell>
        
        <!-- Notes -->
        <mxCell id="notes" value="Notes:&lt;br&gt;- MinIO replaces S3 in development&lt;br&gt;- pgAdmin available in dev only&lt;br&gt;- Frontend is optional (profile-based)&lt;br&gt;- All services in Docker network&lt;br&gt;- Production uses real AWS services" style="text;html=1;strokeColor=none;fillColor=none;align=left;verticalAlign=top;whiteSpace=wrap;rounded=0;fontSize=11;" vertex="1" parent="1">
          <mxGeometry x="40" y="620" width="240" height="100" as="geometry" />
        </mxCell>
        
      </root>
    </mxGraphModel>
  </diagram>
</mxfile>